<svg width="74" height="74" viewBox="0 0 74 74" fill="none" xmlns="http://www.w3.org/2000/svg">
<path d="M67.0625 0H6.9375C3.10598 0 0 3.10598 0 6.9375V67.0625C0 70.894 3.10598 74 6.9375 74H34.6875V69.375H6.9375C5.66028 69.375 4.625 68.3397 4.625 67.0625V23.125H69.375V34.6875H74V6.9375C74 3.10598 70.894 0 67.0625 0ZM50.875 18.5H23.125V13.875H50.875V18.5ZM69.375 18.5H55.5V11.5625C55.5 10.2853 54.4647 9.25 53.1875 9.25H20.8125C19.5353 9.25 18.5 10.2853 18.5 11.5625V18.5H4.625V6.9375C4.625 5.66028 5.66028 4.625 6.9375 4.625H67.0625C68.3397 4.625 69.375 5.66028 69.375 6.9375V18.5Z" fill="white"/>
<path d="M13.875 9.25H9.25V13.875H13.875V9.25Z" fill="white"/>
<path d="M64.75 9.25H60.125V13.875H64.75V9.25Z" fill="white"/>
<path d="M20.8125 30.0625C20.8125 28.7853 19.7772 27.75 18.5 27.75H13.875C12.5978 27.75 11.5625 28.7853 11.5625 30.0625V34.6875C11.5625 35.9647 12.5978 37 13.875 37H18.5C19.7772 37 20.8125 35.9647 20.8125 34.6875V30.0625Z" fill="white"/>
<path d="M48.5625 30.0625C48.5625 28.7853 47.5272 27.75 46.25 27.75H41.625C40.3478 27.75 39.3125 28.7853 39.3125 30.0625V32.375H48.5625V30.0625Z" fill="white"/>
<path d="M62.4375 30.0625C62.4375 28.7853 61.4022 27.75 60.125 27.75H55.5C54.2228 27.75 53.1875 28.7853 53.1875 30.0625V32.375H62.4375V30.0625Z" fill="white"/>
<path d="M32.375 27.75H27.75C26.4728 27.75 25.4375 28.7853 25.4375 30.0625V34.6875C25.4375 35.9647 26.4728 37 27.75 37H32.375C33.6522 37 34.6875 35.9647 34.6875 34.6875V30.0625C34.6875 28.7853 33.6522 27.75 32.375 27.75Z" fill="white"/>
<path d="M20.8125 43.9375C20.8125 42.6603 19.7772 41.625 18.5 41.625H13.875C12.5978 41.625 11.5625 42.6603 11.5625 43.9375V48.5625C11.5625 49.8397 12.5978 50.875 13.875 50.875H18.5C19.7772 50.875 20.8125 49.8397 20.8125 48.5625V43.9375Z" fill="white"/>
<path d="M32.375 41.625H27.75C26.4728 41.625 25.4375 42.6603 25.4375 43.9375V48.5625C25.4375 49.8397 26.4728 50.875 27.75 50.875H32.375C33.6522 50.875 34.6875 49.8397 34.6875 48.5625V43.9375C34.6875 42.6603 33.6522 41.625 32.375 41.625Z" fill="white"/>
<path d="M18.5 55.5H13.875C12.5978 55.5 11.5625 56.5353 11.5625 57.8125V62.4375C11.5625 63.7147 12.5978 64.75 13.875 64.75H18.5C19.7772 64.75 20.8125 63.7147 20.8125 62.4375V57.8125C20.8125 56.5353 19.7772 55.5 18.5 55.5Z" fill="white"/>
<path d="M25.4375 57.8125V62.4375C25.4375 63.7147 26.4728 64.75 27.75 64.75H32.375V55.5H27.75C26.4728 55.5 25.4375 56.5353 25.4375 57.8125Z" fill="white"/>
<path d="M55.5 37C45.2828 37 37 45.2828 37 55.5C37 65.7172 45.2828 74 55.5 74C65.7172 74 74 65.7172 74 55.5C74 45.2828 65.7172 37 55.5 37ZM55.5 69.375C47.8371 69.375 41.625 63.1629 41.625 55.5C41.625 47.8371 47.8371 41.625 55.5 41.625C63.1629 41.625 69.375 47.8371 69.375 55.5C69.375 63.1629 63.1629 69.375 55.5 69.375Z" fill="white"/>
<path d="M53.1875 56.8645L50.2044 53.8813L46.9437 57.142L51.5687 61.767C52.4707 62.6636 53.9273 62.6636 54.8294 61.767L64.0793 52.517L60.8187 49.2563L53.1875 56.8645Z" fill="white"/>
</svg>
