<svg width="100" height="80" viewBox="0 0 100 80" fill="none" xmlns="http://www.w3.org/2000/svg">
<path d="M83.3181 26.7588C78.6963 8.34711 60.0243 -2.83175 41.6127 1.79001C27.2244 5.40192 16.7769 17.8375 15.7005 32.6329C5.48419 34.3177 -1.43204 43.9653 0.252732 54.1815C1.75042 63.264 9.62026 69.9154 18.8251 69.8789H34.4484V63.6295H18.8251C11.9224 63.6295 6.32648 58.0337 6.32648 51.1309C6.32648 44.2281 11.9224 38.6323 18.8251 38.6323C20.5509 38.6323 21.9498 37.2334 21.9498 35.5076C21.9341 19.9763 34.5123 7.37299 50.0436 7.35757C63.4882 7.34409 75.0617 16.8489 77.6624 30.0395C77.9192 31.3565 78.9881 32.3626 80.3184 32.5392C88.8608 33.7557 94.7994 41.6667 93.5831 50.2089C92.4909 57.8796 85.9416 63.5909 78.1936 63.6295H65.695V69.8789H78.1936C90.2735 69.8423 100.037 60.02 99.9998 47.94C99.9694 37.8845 93.0865 29.145 83.3181 26.7588Z" fill="white"/>
<path d="M47.8531 39.5386L35.3545 52.0372L39.7603 56.443L46.947 49.2875V79.253H53.1963V49.2875L60.3518 56.443L64.7575 52.0372L52.2589 39.5386C51.0401 38.327 49.0719 38.327 47.8531 39.5386Z" fill="white"/>
</svg>
