<svg width="70" height="81" viewBox="0 0 70 81" fill="none" xmlns="http://www.w3.org/2000/svg">
<path fill-rule="evenodd" clip-rule="evenodd" d="M68.8135 78.627H67.627V60.9572C67.627 56.3279 64.8915 52.1241 60.6447 50.2417L54.3915 47.5616C55.9131 47.0814 57.2877 46.2252 58.4062 45.0376C60.0938 43.2459 61.0615 40.8148 61.0615 38.3676C61.0615 36.1189 60.2759 33.9964 58.7893 32.2291C56.9297 30.0211 55.9057 27.2149 55.9057 24.3271V18.6412C55.9057 13.6613 53.9663 8.9804 50.445 5.46086C46.9237 1.93925 42.2423 0 37.263 0C26.9843 0 18.622 8.3623 18.622 18.6411V24.1418C18.6226 27.1299 17.4482 29.9822 15.54 32.2813C13.1383 35.1749 12.6393 39.0871 14.238 42.4911C15.4245 45.018 17.5647 46.8334 20.1268 47.6017L13.9173 50.302C9.56087 52.1352 6.7458 56.3736 6.7458 61.0998V75.0675H9.11885V61.0998C9.11885 57.3311 11.3636 53.9511 14.8507 52.4837L22.634 49.0991V56.2412H19.0581C18.0504 56.2412 17.0858 56.6709 16.4117 57.4201C15.7378 58.1694 15.4122 59.1738 15.5185 60.1759L17.4743 78.627H1.18652V81H68.8135V78.627ZM56.9737 33.7571C58.0955 35.0907 58.6885 36.6849 58.6885 38.3674C58.6885 40.2163 57.956 42.0543 56.6788 43.4105C55.3265 44.8462 53.4687 45.6369 51.4477 45.6369H49.9014L47.8702 44.7663C46.096 44.0053 44.8822 42.3741 44.6342 40.4964C48.2952 38.5252 50.7896 34.6565 50.7896 30.2152V21.2952C51.1368 21.3188 51.4838 21.3316 51.8297 21.3316C52.4004 21.3316 52.9688 21.2992 53.5328 21.2353V24.3269C53.5326 27.7732 54.7549 31.1224 56.9737 33.7571ZM37.5514 52.4885C33.3067 52.5636 29.0939 52.0257 25.007 50.8922V48.0672L25.3502 47.918L25.3584 47.9145L27.4752 46.9941C29.8314 45.9697 31.4965 43.8716 32.0014 41.4198C33.0346 41.7202 34.1251 41.8844 35.254 41.8844H39.1203C40.2535 41.8844 41.3482 41.719 42.3849 41.4163C42.9063 43.8569 44.5777 45.9362 46.9351 46.9474L49.1942 47.9156L49.1985 47.9174L49.3659 47.989V50.659C45.5258 51.8031 41.5559 52.4185 37.5514 52.4885ZM49.3656 53.1295V56.2414H25.007V53.3494C28.8536 54.358 32.803 54.8683 36.7791 54.8683C37.0502 54.8683 37.3216 54.866 37.5929 54.8612C41.578 54.7916 45.5306 54.2093 49.3656 53.1295ZM53.5326 18.8426C50.2643 19.2842 46.5802 18.4087 44.042 16.4421L42.5886 18.3179C44.248 19.6034 46.2494 20.509 48.4165 20.9656V27.4251C47.8463 28.7246 47.2116 29.8053 45.7807 30.9858C45.1782 31.4829 44.5189 31.8956 43.8126 32.2231C43.236 31.0978 42.0648 30.3255 40.716 30.3255H37.9354C36.0175 30.3255 34.4573 31.8858 34.4573 33.8036C34.4573 35.7213 36.0175 37.2817 37.9354 37.2817H40.716C42.33 37.2817 43.6905 36.1765 44.0811 34.6833C45.6684 34.0785 48.257 31.9202 48.257 31.9202C47.4535 36.2339 43.6636 39.5108 39.1205 39.5108H35.2538C30.1281 39.5108 25.9578 35.3407 25.9578 30.2147V21.0431C29.9877 20.4114 33.7949 19.0477 37.2864 16.9825C42.6027 13.8379 46.0128 9.7287 48.0707 6.48221C51.5918 9.61827 53.5948 14.1143 53.5326 18.8426ZM41.8207 33.8069C41.819 34.4149 41.3241 34.9089 40.7158 34.9089H37.9352C37.3258 34.9089 36.8302 34.4131 36.8302 33.8039C36.8302 33.1947 37.326 32.6988 37.9352 32.6988H40.7158C41.3239 32.6988 41.8186 33.1926 41.8207 33.8003V33.8069ZM20.995 18.6411C20.995 9.6708 28.2928 2.37305 37.263 2.37305C40.4801 2.37305 43.5543 3.3017 46.1813 5.03054C44.2874 8.0663 41.0998 11.9701 36.0782 14.9405C32.6334 16.9782 28.8547 18.2791 24.8468 18.8072H24.7727H24.7711H24.7696H20.9948L20.995 18.6411ZM16.3858 41.4824C15.1826 38.9199 15.5582 35.9749 17.3646 33.7987C19.6311 31.0679 20.9975 27.6938 20.995 24.1418V21.1802H23.5848V30.2152C23.5848 34.659 26.0823 38.5296 29.7466 40.4997C29.5174 42.3916 28.3073 44.0444 26.5288 44.8177L24.6449 45.6369H22.9251C20.0948 45.6369 17.5892 44.045 16.3858 41.4824ZM57.6905 59.9259L55.7081 78.627H19.8607L17.8782 59.9259C17.8423 59.5869 17.948 59.2607 18.176 59.0074C18.4039 58.754 18.7174 58.6144 19.0581 58.6144H56.5107C56.8514 58.6144 57.1648 58.754 57.3928 59.0074C57.6208 59.2607 57.7264 59.5869 57.6905 59.9259ZM65.2539 78.627H58.0944L60.0503 60.1762C60.1566 59.174 59.8309 58.1696 59.1571 57.4203C58.483 56.6711 57.5186 56.2414 56.5107 56.2414H51.7386V49.0063L59.6964 52.417C63.0724 53.9136 65.2539 57.2657 65.2539 60.9572V78.627ZM37.7843 64.1118C35.2981 64.1118 33.2755 66.1344 33.2755 68.6206C33.2755 71.1068 35.2981 73.1294 37.7843 73.1294C40.2705 73.1294 42.2931 71.1068 42.2931 68.6206C42.2931 66.1344 40.2705 64.1118 37.7843 64.1118ZM37.7843 70.7563C36.6066 70.7563 35.6486 69.7983 35.6486 68.6206C35.6486 67.4429 36.6066 66.4849 37.7843 66.4849C38.962 66.4849 39.9201 67.4429 39.9201 68.6206C39.9201 69.7983 38.9621 70.7563 37.7843 70.7563Z" fill="white"/>
</svg>
