<svg width="884" height="941" viewBox="0 0 884 941" fill="none" xmlns="http://www.w3.org/2000/svg">
<path fill-rule="evenodd" clip-rule="evenodd" d="M1074.35 340C1074.35 601.425 862.426 813.352 601.001 813.352C339.576 813.352 127.648 601.425 127.648 340C127.648 78.5746 339.576 -133.353 601.001 -133.353C862.426 -133.353 1074.35 78.5746 1074.35 340ZM1075.35 340C1075.35 601.978 862.979 814.352 601.001 814.352C339.023 814.352 126.648 601.978 126.648 340C126.648 78.0223 339.023 -134.353 601.001 -134.353C862.979 -134.353 1075.35 78.0223 1075.35 340ZM601.001 691.31C795.024 691.31 952.311 534.023 952.311 340C952.311 145.977 795.024 -11.3104 601.001 -11.3104C406.978 -11.3104 249.691 145.977 249.691 340C249.691 534.023 406.978 691.31 601.001 691.31ZM601.001 692.31C795.577 692.31 953.311 534.576 953.311 340C953.311 145.424 795.577 -12.3104 601.001 -12.3104C406.425 -12.3104 248.691 145.424 248.691 340C248.691 534.576 406.425 692.31 601.001 692.31ZM850.993 340C850.993 478.067 739.068 589.992 601.001 589.992C462.934 589.992 351.009 478.067 351.009 340C351.009 201.933 462.934 90.0076 601.001 90.0076C739.068 90.0076 850.993 201.933 850.993 340ZM851.993 340C851.993 478.619 739.62 590.992 601.001 590.992C462.382 590.992 350.009 478.619 350.009 340C350.009 201.381 462.382 89.0076 601.001 89.0076C739.62 89.0076 851.993 201.381 851.993 340ZM601.001 501.339C690.106 501.339 762.34 429.105 762.34 340C762.34 250.895 690.106 178.661 601.001 178.661C511.896 178.661 439.662 250.895 439.662 340C439.662 429.105 511.896 501.339 601.001 501.339ZM601.001 502.339C690.658 502.339 763.34 429.657 763.34 340C763.34 250.343 690.658 177.661 601.001 177.661C511.344 177.661 438.662 250.343 438.662 340C438.662 429.657 511.344 502.339 601.001 502.339ZM601.001 419.594C644.959 419.594 680.595 383.958 680.595 340C680.595 296.041 644.959 260.406 601.001 260.406C557.042 260.406 521.407 296.041 521.407 340C521.407 383.958 557.042 419.594 601.001 419.594ZM601.001 420.594C645.512 420.594 681.595 384.511 681.595 340C681.595 295.489 645.512 259.406 601.001 259.406C556.49 259.406 520.407 295.489 520.407 340C520.407 384.511 556.49 420.594 601.001 420.594Z" fill="url(#paint0_linear)" fill-opacity="0.35"/>
<circle cx="601" cy="340" r="600.5" stroke="#0057FF"/>
<path d="M612.812 361H589.188C587.017 361 585.25 359.234 585.25 357.062V338.688C585.25 336.516 587.017 334.75 589.188 334.75H612.812C614.983 334.75 616.75 336.516 616.75 338.688V357.062C616.75 359.234 614.983 361 612.812 361ZM589.188 337.375C588.465 337.375 587.875 337.963 587.875 338.688V357.062C587.875 357.787 588.465 358.375 589.188 358.375H612.812C613.535 358.375 614.125 357.787 614.125 357.062V338.688C614.125 337.963 613.535 337.375 612.812 337.375H589.188Z" fill="#8F8F8F"/>
<path d="M610.188 337.375C609.463 337.375 608.875 336.787 608.875 336.062V329.5C608.875 325.158 605.342 321.625 601 321.625C596.658 321.625 593.125 325.158 593.125 329.5V336.062C593.125 336.787 592.537 337.375 591.812 337.375C591.088 337.375 590.5 336.787 590.5 336.062V329.5C590.5 323.709 595.209 319 601 319C606.791 319 611.5 323.709 611.5 329.5V336.062C611.5 336.787 610.912 337.375 610.188 337.375Z" fill="#8F8F8F"/>
<defs>
<linearGradient id="paint0_linear" x1="287.26" y1="827.593" x2="316.501" y2="97.5" gradientUnits="userSpaceOnUse">
<stop stop-color="white"/>
<stop offset="1" stop-color="white" stop-opacity="0"/>
</linearGradient>
</defs>
</svg>
