<svg width="342" height="342" viewBox="0 0 342 342" fill="none" xmlns="http://www.w3.org/2000/svg">
<path fill-rule="evenodd" clip-rule="evenodd" d="M341 171C341 264.888 264.888 341 171 341C77.1116 341 1 264.888 1 171C1 77.1116 77.1116 1 171 1C264.888 1 341 77.1116 341 171ZM342 171C342 265.441 265.441 342 171 342C76.5593 342 0 265.441 0 171C0 76.5593 76.5593 0 171 0C265.441 0 342 76.5593 342 171ZM171 296.174C240.132 296.174 296.175 240.132 296.175 171C296.175 101.868 240.132 45.8249 171 45.8249C101.868 45.8249 45.8255 101.868 45.8255 171C45.8255 240.132 101.868 296.174 171 296.174ZM171 297.174C240.685 297.174 297.175 240.684 297.175 171C297.175 101.315 240.685 44.8249 171 44.8249C101.316 44.8249 44.8255 101.315 44.8255 171C44.8255 240.684 101.316 297.174 171 297.174ZM253.84 171C253.84 216.751 216.751 253.84 171 253.84C125.249 253.84 88.1601 216.751 88.1601 171C88.1601 125.249 125.249 88.1604 171 88.1604C216.751 88.1604 253.84 125.249 253.84 171ZM254.84 171C254.84 217.304 217.303 254.84 171 254.84C124.696 254.84 87.1601 217.304 87.1601 171C87.1601 124.697 124.696 87.1604 171 87.1604C217.303 87.1604 254.84 124.697 254.84 171ZM218.976 171C218.976 197.496 197.496 218.976 171 218.976C144.504 218.976 123.024 197.496 123.024 171C123.024 144.504 144.504 123.024 171 123.024C197.496 123.024 218.976 144.504 218.976 171ZM219.976 171C219.976 198.048 198.048 219.976 171 219.976C143.951 219.976 122.024 198.048 122.024 171C122.024 143.951 143.951 122.024 171 122.024C198.048 122.024 219.976 143.951 219.976 171Z" fill="url(#paint0_linear)" fill-opacity="0.35"/>
<defs>
<linearGradient id="paint0_linear" x1="171" y1="-24" x2="171" y2="241" gradientUnits="userSpaceOnUse">
<stop stop-color="white"/>
<stop offset="1" stop-color="white" stop-opacity="0"/>
</linearGradient>
</defs>
</svg>
