<svg width="84" height="83" viewBox="0 0 84 83" fill="none" xmlns="http://www.w3.org/2000/svg">
<path d="M3.42188 48.0146H7.40625V44.0303C7.40625 40.3686 10.3852 37.3897 14.0469 37.3897H20.6875V33.4053C20.6875 32.6721 21.2825 32.0771 22.0156 32.0771H32.6406V29.2323C30.3563 28.6386 28.6562 26.5761 28.6562 24.1084C28.6562 21.1786 31.0389 18.7959 33.9688 18.7959C36.8986 18.7959 39.2812 21.1786 39.2812 24.1084C39.2812 26.5761 37.5812 28.6386 35.2969 29.2323V32.0771H45.9219C46.655 32.0771 47.25 32.6721 47.25 33.4053V37.3897H53.8906C57.5523 37.3897 60.5312 40.3686 60.5312 44.0303V48.0146H64.5156C66.7123 48.0146 68.5 49.8023 68.5 51.999V67.9365C68.5 70.1332 66.7123 71.9209 64.5156 71.9209H60.5312V75.9053C60.5312 79.5669 57.5523 82.5459 53.8906 82.5459H14.0469C10.3852 82.5459 7.40625 79.5669 7.40625 75.9053V71.9209H3.42188C1.22516 71.9209 -0.5625 70.1332 -0.5625 67.9365V51.999C-0.5625 49.8023 1.22516 48.0146 3.42188 48.0146ZM36.625 24.1084C36.625 22.6435 35.4337 21.4521 33.9688 21.4521C32.5038 21.4521 31.3125 22.6435 31.3125 24.1084C31.3125 25.5733 32.5038 26.7646 33.9688 26.7646C35.4337 26.7646 36.625 25.5733 36.625 24.1084ZM64.5156 69.2646C65.2474 69.2646 65.8438 68.6683 65.8438 67.9365V51.999C65.8438 51.2672 65.2474 50.6709 64.5156 50.6709H60.5312V69.2646H64.5156ZM44.5938 34.7334H23.3438V37.3897H44.5938V34.7334ZM10.0625 75.9053C10.0625 78.102 11.8502 79.8896 14.0469 79.8896H53.8906C56.0873 79.8896 57.875 78.102 57.875 75.9053V44.0303C57.875 41.8336 56.0873 40.0459 53.8906 40.0459H14.0469C11.8502 40.0459 10.0625 41.8336 10.0625 44.0303V75.9053ZM2.09375 67.9365C2.09375 68.6683 2.69008 69.2646 3.42188 69.2646H7.40625V50.6709H3.42188C2.69008 50.6709 2.09375 51.2672 2.09375 51.999V67.9365Z" fill="white"/>
<path d="M22.0156 61.2959H45.9219C46.655 61.2959 47.25 61.8909 47.25 62.624V63.9521C47.25 71.2754 41.292 77.2334 33.9688 77.2334C26.6455 77.2334 20.6875 71.2754 20.6875 63.9521V62.624C20.6875 61.8909 21.2825 61.2959 22.0156 61.2959ZM33.9688 74.5771C39.8271 74.5771 44.5938 69.8105 44.5938 63.9521H23.3438C23.3438 69.8105 28.1104 74.5771 33.9688 74.5771Z" fill="white"/>
<path d="M41.9375 53.3271C41.9375 50.3973 44.3202 48.0146 47.25 48.0146C50.1798 48.0146 52.5625 50.3973 52.5625 53.3271C52.5625 56.257 50.1798 58.6396 47.25 58.6396C44.3202 58.6396 41.9375 56.257 41.9375 53.3271ZM49.9062 53.3271C49.9062 51.8622 48.7149 50.6709 47.25 50.6709C45.7851 50.6709 44.5938 51.8622 44.5938 53.3271C44.5938 54.7921 45.7851 55.9834 47.25 55.9834C48.7149 55.9834 49.9062 54.7921 49.9062 53.3271Z" fill="white"/>
<path d="M20.6875 48.0146C23.6173 48.0146 26 50.3973 26 53.3271C26 56.257 23.6173 58.6396 20.6875 58.6396C17.7577 58.6396 15.375 56.257 15.375 53.3271C15.375 50.3973 17.7577 48.0146 20.6875 48.0146ZM20.6875 55.9834C22.1524 55.9834 23.3438 54.7921 23.3438 53.3271C23.3438 51.8622 22.1524 50.6709 20.6875 50.6709C19.2226 50.6709 18.0312 51.8622 18.0312 53.3271C18.0312 54.7921 19.2226 55.9834 20.6875 55.9834Z" fill="white"/>
<path d="M63.3609 29.0318C63.1072 29.2854 62.7672 29.4209 62.4219 29.4209C62.2505 29.4209 62.0779 29.3877 61.9132 29.32C61.4178 29.1141 61.0938 28.6307 61.0938 28.0928V24.1084H53.125C50.9283 24.1084 49.1406 22.3207 49.1406 20.124V4.18652C49.1406 1.9898 50.9283 0.202148 53.125 0.202148H79.6875C81.8842 0.202148 83.6719 1.9898 83.6719 4.18652V20.124C83.6719 22.3207 81.8842 24.1084 79.6875 24.1084H68.2842L63.3609 29.0318ZM81.0156 20.124V4.18652C81.0156 3.45473 80.4193 2.8584 79.6875 2.8584H53.125C52.3932 2.8584 51.7969 3.45473 51.7969 4.18652V20.124C51.7969 20.8558 52.3932 21.4521 53.125 21.4521H62.4219C63.155 21.4521 63.75 22.0471 63.75 22.7803V24.8867L66.7954 21.8413C67.0451 21.5916 67.3824 21.4521 67.7344 21.4521H79.6875C80.4193 21.4521 81.0156 20.8571 81.0156 20.124Z" fill="white"/>
<path d="M78.3594 8H54.4531V10.6562H78.3594V8Z" fill="white"/>
<path d="M75.7031 13.3125H57.1094V15.9688H75.7031V13.3125Z" fill="white"/>
</svg>
