<svg width="188" height="188" viewBox="0 0 188 188" fill="none" xmlns="http://www.w3.org/2000/svg">
<path fill-rule="evenodd" clip-rule="evenodd" d="M187 94C187 145.362 145.362 187 94 187C42.6375 187 1 145.362 1 94C1 42.6375 42.6375 1 94 1C145.362 1 187 42.6375 187 94ZM188 94C188 145.915 145.915 188 94 188C42.0852 188 0 145.915 0 94C0 42.0852 42.0852 0 94 0C145.915 0 188 42.0852 188 94ZM94 162.816C132.006 162.816 162.816 132.006 162.816 94C162.816 55.9943 132.006 25.1845 94 25.1845C55.9942 25.1845 25.1844 55.9943 25.1844 94C25.1844 132.006 55.9942 162.816 94 162.816ZM94 163.816C132.558 163.816 163.816 132.558 163.816 94C163.816 55.442 132.558 24.1845 94 24.1845C55.4419 24.1845 24.1844 55.442 24.1844 94C24.1844 132.558 55.4419 163.816 94 163.816ZM142.738 94C142.738 120.917 120.917 142.738 94 142.738C67.0829 142.738 45.2622 120.917 45.2622 94C45.2622 67.0829 67.0829 45.2622 94 45.2622C120.917 45.2622 142.738 67.0829 142.738 94ZM143.738 94C143.738 121.469 121.469 143.738 94 143.738C66.5306 143.738 44.2622 121.469 44.2622 94C44.2622 66.5306 66.5306 44.2622 94 44.2622C121.469 44.2622 143.738 66.5306 143.738 94ZM94 125.17C111.215 125.17 125.17 111.215 125.17 94C125.17 76.7853 111.215 62.8301 94 62.8301C76.7853 62.8301 62.8301 76.7853 62.8301 94C62.8301 111.215 76.7853 125.17 94 125.17ZM94 126.17C111.767 126.17 126.17 111.767 126.17 94C126.17 76.2331 111.767 61.8301 94 61.8301C76.2331 61.8301 61.8301 76.2331 61.8301 94C61.8301 111.767 76.2331 126.17 94 126.17ZM93.9999 108.971C102.268 108.971 108.971 102.268 108.971 94C108.971 85.7318 102.268 79.0291 93.9999 79.0291C85.7318 79.0291 79.0291 85.7318 79.0291 94C79.0291 102.268 85.7318 108.971 93.9999 108.971ZM93.9999 109.971C102.82 109.971 109.971 102.82 109.971 94C109.971 85.1795 102.82 78.0291 93.9999 78.0291C85.1795 78.0291 78.0291 85.1795 78.0291 94C78.0291 102.82 85.1795 109.971 93.9999 109.971Z" fill="url(#paint0_linear)" fill-opacity="0.35"/>
<defs>
<linearGradient id="paint0_linear" x1="31.5" y1="42.5" x2="94" y2="94" gradientUnits="userSpaceOnUse">
<stop stop-color="white"/>
<stop offset="1" stop-color="white" stop-opacity="0"/>
</linearGradient>
</defs>
</svg>
