<svg width="78" height="78" viewBox="0 0 78 78" fill="none" xmlns="http://www.w3.org/2000/svg">
<path d="M26.1061 -0.5C21.4116 -0.5 17.6061 3.30558 17.6061 8V17.6053H8C3.30557 17.6053 -0.5 21.4109 -0.5 26.1053V70C-0.5 74.6944 3.30558 78.5 8 78.5H51.8955C56.5899 78.5 60.3955 74.6944 60.3955 70V60.3939H70C74.6944 60.3939 78.5 56.5884 78.5 51.8939V8C78.5 3.30558 74.6944 -0.5 70 -0.5H26.1061ZM56.2754 66.8799C56.2754 71.022 52.9175 74.3799 48.7754 74.3799H11.1199C6.97781 74.3799 3.61995 71.022 3.61995 66.8799V29.2252C3.61995 25.0831 6.97781 21.7252 11.1199 21.7252H52.7754C54.7084 21.7252 56.2754 23.2922 56.2754 25.2252V66.8799ZM74.3799 48.774C74.3799 52.9161 71.022 56.274 66.8799 56.274H60.3954V22.1053C60.3954 19.62 58.3806 17.6053 55.8954 17.6053H21.726V11.12C21.726 6.97782 25.0839 3.61995 29.226 3.61995H66.8799C71.022 3.61995 74.3799 6.97781 74.3799 11.1199V48.774Z" fill="white" stroke="white"/>
</svg>
