<svg width="18" height="15" viewBox="0 0 18 15" fill="none" xmlns="http://www.w3.org/2000/svg">
<path d="M17.685 1.08029C15.185 3.30029 12.185 7.05029 8.685 12.3303L6.96 15.0153C5.52 13.2153 3.2 10.7153 0 7.51529L1.605 5.91029L5.895 9.66029C7.395 8.16029 8.79 6.80279 10.08 5.58779C11.37 4.37279 12.3975 3.43529 13.1625 2.77529C13.9275 2.11529 14.585 1.56029 15.135 1.11029C15.685 0.660289 16.07 0.365289 16.29 0.225289L16.605 0.0152893C16.645 0.0152893 16.7 0.0252893 16.77 0.0452893C16.84 0.0652893 16.97 0.162789 17.16 0.337789C17.35 0.512789 17.525 0.760289 17.685 1.08029Z" fill="#8F8F8F"/>
</svg>
