<svg width="37" height="31" viewBox="0 0 37 31" fill="none" xmlns="http://www.w3.org/2000/svg">
<g clip-path="url(#clip0)">
<path d="M36.549 2.23274C31.3823 6.82074 25.1823 14.5707 17.949 25.4827L14.384 31.0317C11.408 27.3117 6.61333 22.1451 0 15.5317L3.317 12.2147L12.183 19.9647C15.283 16.8647 18.166 14.0592 20.832 11.5482C23.498 9.03724 25.6215 7.09974 27.2025 5.73574C28.7835 4.37174 30.1423 3.22474 31.279 2.29474C32.4157 1.36474 33.2113 0.755072 33.666 0.465738L34.317 0.0317383C34.3997 0.0317383 34.5133 0.0524049 34.658 0.0937383C34.8027 0.135072 35.0713 0.336572 35.464 0.698238C35.8567 1.0599 36.2183 1.5714 36.549 2.23274Z" fill="#8F8F8F"/>
</g>
<defs>
<clipPath id="clip0">
<rect width="36.549" height="31" fill="white"/>
</clipPath>
</defs>
</svg>
